<?xml version="1.0" standalone="no"?>
<!DOCTYPE svg PUBLIC "-//W3C//DTD SVG 20010904//EN"
 "http://www.w3.org/TR/2001/REC-SVG-20010904/DTD/svg10.dtd">
<svg version="1.0" xmlns="http://www.w3.org/2000/svg"
 width="1200.000000pt" height="292.000000pt" viewBox="0 0 1200.000000 292.000000"
 preserveAspectRatio="xMidYMid meet">
<metadata>
Created by potrace 1.15, written by Peter Selinger 2001-2017
</metadata>
<g transform="translate(0.000000,292.000000) scale(0.100000,-0.100000)"
fill="#ffffff" stroke="none">
<path d="M760 2711 c-288 -62 -523 -245 -651 -506 -79 -162 -93 -227 -93 -445
-1 -212 14 -287 85 -438 107 -229 305 -404 545 -482 122 -39 195 -50 336 -50
257 0 472 86 656 264 82 78 202 243 202 276 0 5 -53 37 -117 71 -65 34 -141
75 -170 91 l-52 29 -33 -63 c-66 -125 -207 -237 -343 -273 -75 -19 -233 -19
-305 0 -191 51 -352 206 -413 400 -34 110 -30 262 9 375 70 199 211 329 410
380 246 63 484 -24 616 -226 23 -35 46 -64 50 -64 6 0 310 191 325 204 1 1
-17 32 -42 68 -120 179 -308 312 -536 379 -107 31 -359 36 -479 10z"/>
<path d="M6440 2470 l0 -170 185 0 185 0 0 170 0 170 -185 0 -185 0 0 -170z"/>
<path d="M11360 2415 l0 -225 -115 0 -115 0 0 -170 0 -170 114 0 114 0 4 -302
c4 -244 8 -318 23 -378 56 -239 183 -325 508 -345 l97 -5 0 173 0 174 -85 10
c-163 20 -165 25 -165 393 l0 280 125 0 125 0 0 170 0 170 -125 0 -125 0 0
225 0 225 -190 0 -190 0 0 -225z"/>
<path d="M3995 2213 c-223 -35 -412 -168 -502 -353 -59 -122 -76 -200 -76
-350 -1 -151 17 -231 75 -350 55 -110 168 -227 275 -283 230 -120 504 -97 670
56 l45 42 -4 -110 c-5 -130 -22 -179 -93 -254 -77 -82 -184 -114 -311 -92 -37
7 -92 24 -122 39 -55 27 -155 124 -167 162 -9 27 -5 28 -192 -77 -97 -54 -151
-89 -146 -96 64 -115 177 -221 302 -286 120 -62 204 -82 367 -88 172 -7 258 9
384 69 69 33 101 56 165 122 88 88 127 155 166 286 23 75 23 79 27 808 l3 732
-191 0 -190 0 0 -72 0 -72 -32 31 c-51 48 -127 92 -197 113 -64 20 -200 32
-256 23z m226 -347 c185 -43 299 -222 268 -418 -40 -245 -281 -374 -503 -270
-122 58 -194 165 -203 302 -16 222 134 387 362 399 11 0 45 -5 76 -13z"/>
<path d="M5670 2209 c-76 -13 -189 -70 -244 -124 l-46 -44 0 74 0 75 -185 0
-185 0 0 -685 0 -685 184 0 185 0 3 428 c3 416 4 428 26 483 53 133 179 195
316 155 70 -21 125 -73 151 -142 17 -44 19 -92 23 -487 l3 -437 185 0 184 0 0
473 c0 436 -2 480 -19 549 -27 105 -64 172 -130 238 -58 58 -131 99 -211 118
-69 16 -179 22 -240 11z"/>
<path d="M8755 2206 c-143 -28 -245 -82 -347 -182 -142 -140 -206 -322 -195
-553 6 -132 24 -206 72 -306 62 -129 163 -228 300 -295 103 -51 179 -70 283
-70 142 0 269 46 367 132 l45 40 0 -76 0 -76 185 0 185 0 0 685 0 685 -185 0
-185 0 0 -66 0 -66 -42 37 c-115 98 -314 144 -483 111z m246 -336 c159 -30
273 -164 286 -334 20 -257 -201 -447 -445 -382 -269 72 -361 418 -162 616 52
52 102 79 180 96 71 16 77 16 141 4z"/>
<path d="M10475 2210 c-102 -18 -217 -79 -270 -142 l-25 -30 0 76 0 76 -185 0
-185 0 0 -685 0 -685 185 0 184 0 3 433 c4 490 5 494 84 573 59 59 133 81 222
66 85 -14 134 -49 169 -121 l28 -56 5 -445 5 -445 188 -3 187 -2 0 460 c0 381
-3 474 -16 538 -49 240 -210 379 -459 396 -38 3 -92 1 -120 -4z"/>
<path d="M2441 2191 c-369 -94 -600 -459 -525 -829 9 -44 35 -117 61 -171 37
-78 59 -108 131 -181 73 -73 102 -95 182 -134 110 -54 201 -76 318 -76 326 -1
605 219 688 540 23 85 22 244 0 330 -62 242 -239 432 -471 506 -110 36 -277
42 -384 15z m317 -365 c68 -35 128 -97 161 -166 23 -48 26 -68 26 -155 0 -86
-3 -107 -24 -150 -111 -225 -389 -272 -555 -95 -66 71 -89 126 -94 230 -3 69
0 95 17 140 39 105 119 185 215 216 68 23 190 13 254 -20z"/>
<path d="M6437 2184 c-4 -4 -7 -313 -7 -686 l0 -678 190 0 190 0 -2 683 -3
682 -181 3 c-99 1 -183 -1 -187 -4z"/>
<path d="M6960 2025 l0 -165 353 0 352 0 -358 -353 -358 -352 1 -168 0 -167
618 2 617 3 3 163 2 162 -367 0 -368 1 358 352 358 352 -1 168 0 167 -605 0
-605 0 0 -165z"/>
</g>
</svg>
